<svg width="143" height="22" viewBox="0 0 143 22" fill="none" xmlns="http://www.w3.org/2000/svg">
<path d="M5.524 7.588C5.972 6.86 6.616 6.272 7.456 5.824C8.296 5.376 9.25733 5.152 10.34 5.152C11.628 5.152 12.7947 5.47867 13.84 6.132C14.8853 6.78533 15.7067 7.71867 16.304 8.932C16.92 10.1453 17.228 11.5547 17.228 13.16C17.228 14.7653 16.92 16.184 16.304 17.416C15.7067 18.6293 14.8853 19.572 13.84 20.244C12.7947 20.8973 11.628 21.224 10.34 21.224C9.23867 21.224 8.27733 21.0093 7.456 20.58C6.63467 20.132 5.99067 19.544 5.524 18.816V21H0.736V0.28H5.524V7.588ZM12.356 13.16C12.356 11.9653 12.02 11.032 11.348 10.36C10.6947 9.66933 9.88267 9.324 8.912 9.324C7.96 9.324 7.148 9.66933 6.476 10.36C5.82267 11.0507 5.496 11.9933 5.496 13.188C5.496 14.3827 5.82267 15.3253 6.476 16.016C7.148 16.7067 7.96 17.052 8.912 17.052C9.864 17.052 10.676 16.7067 11.348 16.016C12.02 15.3067 12.356 14.3547 12.356 13.16ZM26.3519 21.224C24.8212 21.224 23.4399 20.8973 22.2079 20.244C20.9946 19.5907 20.0332 18.6573 19.3239 17.444C18.6332 16.2307 18.2879 14.812 18.2879 13.188C18.2879 11.5827 18.6426 10.1733 19.3519 8.96C20.0612 7.728 21.0319 6.78533 22.2639 6.132C23.4959 5.47867 24.8772 5.152 26.4079 5.152C27.9386 5.152 29.3199 5.47867 30.5519 6.132C31.7839 6.78533 32.7546 7.728 33.4639 8.96C34.1732 10.1733 34.5279 11.5827 34.5279 13.188C34.5279 14.7933 34.1639 16.212 33.4359 17.444C32.7266 18.6573 31.7466 19.5907 30.4959 20.244C29.2639 20.8973 27.8826 21.224 26.3519 21.224ZM26.3519 17.08C27.2666 17.08 28.0412 16.744 28.6759 16.072C29.3292 15.4 29.6559 14.4387 29.6559 13.188C29.6559 11.9373 29.3386 10.976 28.7039 10.304C28.0879 9.632 27.3226 9.296 26.4079 9.296C25.4746 9.296 24.6999 9.632 24.0839 10.304C23.4679 10.9573 23.1599 11.9187 23.1599 13.188C23.1599 14.4387 23.4586 15.4 24.0559 16.072C24.6719 16.744 25.4372 17.08 26.3519 17.08ZM41.356 7.588C41.804 6.86 42.448 6.272 43.288 5.824C44.128 5.376 45.0894 5.152 46.172 5.152C47.46 5.152 48.6267 5.47867 49.672 6.132C50.7174 6.78533 51.5387 7.71867 52.136 8.932C52.752 10.1453 53.06 11.5547 53.06 13.16C53.06 14.7653 52.752 16.184 52.136 17.416C51.5387 18.6293 50.7174 19.572 49.672 20.244C48.6267 20.8973 47.46 21.224 46.172 21.224C45.0707 21.224 44.1094 21.0093 43.288 20.58C42.4667 20.132 41.8227 19.544 41.356 18.816V21H36.568V0.28H41.356V7.588ZM48.188 13.16C48.188 11.9653 47.852 11.032 47.18 10.36C46.5267 9.66933 45.7147 9.324 44.744 9.324C43.792 9.324 42.98 9.66933 42.308 10.36C41.6547 11.0507 41.328 11.9933 41.328 13.188C41.328 14.3827 41.6547 15.3253 42.308 16.016C42.98 16.7067 43.792 17.052 44.744 17.052C45.696 17.052 46.508 16.7067 47.18 16.016C47.852 15.3067 48.188 14.3547 48.188 13.16ZM64.5919 5.208C66.4213 5.208 67.8773 5.80533 68.9599 7C70.0613 8.176 70.6119 9.8 70.6119 11.872V21H65.8519V12.516C65.8519 11.4707 65.5813 10.6587 65.0399 10.08C64.4986 9.50133 63.7706 9.212 62.8559 9.212C61.9413 9.212 61.2133 9.50133 60.6719 10.08C60.1306 10.6587 59.8599 11.4707 59.8599 12.516V21H55.0719V5.376H59.8599V7.448C60.3453 6.75733 60.9986 6.216 61.8199 5.824C62.6413 5.41333 63.5653 5.208 64.5919 5.208ZM88.1671 12.936C88.1671 13.384 88.1391 13.8507 88.0831 14.336H77.2471C77.3218 15.3067 77.6298 16.0533 78.1711 16.576C78.7311 17.08 79.4125 17.332 80.2151 17.332C81.4098 17.332 82.2405 16.828 82.7071 15.82H87.8031C87.5418 16.8467 87.0658 17.7707 86.3751 18.592C85.7031 19.4133 84.8538 20.0573 83.8271 20.524C82.8005 20.9907 81.6525 21.224 80.3831 21.224C78.8525 21.224 77.4898 20.8973 76.2951 20.244C75.1005 19.5907 74.1671 18.6573 73.4951 17.444C72.8231 16.2307 72.4871 14.812 72.4871 13.188C72.4871 11.564 72.8138 10.1453 73.4671 8.932C74.1391 7.71867 75.0725 6.78533 76.2671 6.132C77.4618 5.47867 78.8338 5.152 80.3831 5.152C81.8951 5.152 83.2391 5.46933 84.4151 6.104C85.5911 6.73867 86.5058 7.644 87.1591 8.82C87.8311 9.996 88.1671 11.368 88.1671 12.936ZM83.2671 11.676C83.2671 10.8547 82.9871 10.2013 82.4271 9.716C81.8671 9.23067 81.1671 8.988 80.3271 8.988C79.5245 8.988 78.8431 9.22133 78.2831 9.688C77.7418 10.1547 77.4058 10.8173 77.2751 11.676H83.2671ZM98.901 16.94V21H96.465C94.729 21 93.3757 20.58 92.405 19.74C91.4344 18.8813 90.949 17.4907 90.949 15.568V9.352H89.045V5.376H90.949V1.568H95.737V5.376H98.873V9.352H95.737V15.624C95.737 16.0907 95.849 16.4267 96.073 16.632C96.297 16.8373 96.6704 16.94 97.193 16.94H98.901Z" fill="#F0F0F0"/>
<path d="M115.798 21.196C113.95 21.196 112.251 20.7667 110.702 19.908C109.171 19.0493 107.948 17.8547 107.034 16.324C106.138 14.7747 105.69 13.0387 105.69 11.116C105.69 9.19333 106.138 7.46667 107.034 5.936C107.948 4.40533 109.171 3.21067 110.702 2.352C112.251 1.49333 113.95 1.064 115.798 1.064C117.646 1.064 119.335 1.49333 120.866 2.352C122.415 3.21067 123.628 4.40533 124.506 5.936C125.402 7.46667 125.85 9.19333 125.85 11.116C125.85 13.0387 125.402 14.7747 124.506 16.324C123.61 17.8547 122.396 19.0493 120.866 19.908C119.335 20.7667 117.646 21.196 115.798 21.196ZM115.798 16.828C117.366 16.828 118.616 16.3053 119.55 15.26C120.502 14.2147 120.978 12.8333 120.978 11.116C120.978 9.38 120.502 7.99867 119.55 6.972C118.616 5.92667 117.366 5.404 115.798 5.404C114.211 5.404 112.942 5.91733 111.99 6.944C111.056 7.97067 110.59 9.36133 110.59 11.116C110.59 12.852 111.056 14.2427 111.99 15.288C112.942 16.3147 114.211 16.828 115.798 16.828ZM135.125 21.196C133.688 21.196 132.4 20.9627 131.261 20.496C130.123 20.0293 129.208 19.3387 128.517 18.424C127.845 17.5093 127.491 16.408 127.453 15.12H132.549C132.624 15.848 132.876 16.408 133.305 16.8C133.735 17.1733 134.295 17.36 134.985 17.36C135.695 17.36 136.255 17.2013 136.665 16.884C137.076 16.548 137.281 16.0907 137.281 15.512C137.281 15.0267 137.113 14.6253 136.777 14.308C136.46 13.9907 136.059 13.7293 135.573 13.524C135.107 13.3187 134.435 13.0853 133.557 12.824C132.288 12.432 131.252 12.04 130.449 11.648C129.647 11.256 128.956 10.6773 128.377 9.912C127.799 9.14667 127.509 8.148 127.509 6.916C127.509 5.08667 128.172 3.65867 129.497 2.632C130.823 1.58667 132.549 1.064 134.677 1.064C136.843 1.064 138.588 1.58667 139.913 2.632C141.239 3.65867 141.948 5.096 142.041 6.944H136.861C136.824 6.30933 136.591 5.81467 136.161 5.46C135.732 5.08667 135.181 4.9 134.509 4.9C133.931 4.9 133.464 5.05867 133.109 5.376C132.755 5.67467 132.577 6.11333 132.577 6.692C132.577 7.32667 132.876 7.82133 133.473 8.176C134.071 8.53067 135.004 8.91333 136.273 9.324C137.543 9.75333 138.569 10.164 139.353 10.556C140.156 10.948 140.847 11.5173 141.425 12.264C142.004 13.0107 142.293 13.972 142.293 15.148C142.293 16.268 142.004 17.2853 141.425 18.2C140.865 19.1147 140.044 19.8427 138.961 20.384C137.879 20.9253 136.6 21.196 135.125 21.196Z" fill="#B899FF"/>
</svg>
